<?xml version="1.0" encoding="UTF-8" standalone="no"?>
<svg
   xmlns:dc="http://purl.org/dc/elements/1.1/"
   xmlns:cc="http://creativecommons.org/ns#"
   xmlns:rdf="http://www.w3.org/1999/02/22-rdf-syntax-ns#"
   xmlns:svg="http://www.w3.org/2000/svg"
   xmlns="http://www.w3.org/2000/svg"
   viewBox="0 0 258.66666 258.66666"
   height="258.66666"
   width="258.66666"
   xml:space="preserve"
   id="svg2"
   version="1.1"><metadata
     id="metadata8"><rdf:RDF><cc:Work
         rdf:about=""><dc:format>image/svg+xml</dc:format><dc:type
           rdf:resource="http://purl.org/dc/dcmitype/StillImage" /></cc:Work></rdf:RDF></metadata><defs
     id="defs6" /><g
     transform="matrix(1.3333333,0,0,-1.3333333,0,258.66667)"
     id="g10"><g
       transform="scale(0.1)"
       id="g12"><path
         id="path14"
         style="fill:#ffffff;fill-opacity:1;fill-rule:evenodd;stroke:none"
         d="M 2.59766,1933.23 H 1930.16 V 5.66797 H 2.59766 V 1933.23" /><path
         id="path16"
         style="fill:#15569c;fill-opacity:1;fill-rule:evenodd;stroke:none"
         d="m 1018.57,1795.13 c 38.37,-47.96 -9.59,-92.72 -9.59,-143.88 l -3.19,-338.92 c -19.188,-3.2 -38.376,-9.59 -57.556,-15.99 v 6.4 l -12.789,354.9 c -6.398,51.16 -25.582,121.5 31.969,150.28 15.988,3.2 38.376,3.2 51.156,-12.79" /><path
         id="path18"
         style="fill:#15569c;fill-opacity:1;fill-rule:evenodd;stroke:none"
         d="m 308.762,1408.25 c 9.59,38.37 41.562,73.54 60.746,111.91 38.371,41.57 79.937,79.93 131.094,95.92 l 12.789,9.59 C 471.824,1545.74 385.496,1462.61 308.762,1408.25" /><path
         id="path20"
         style="fill:#15569c;fill-opacity:1;fill-rule:evenodd;stroke:none"
         d="m 1562.13,1532.95 c 31.97,-35.17 54.35,-76.74 70.34,-118.31 l -102.32,89.53 c -35.17,35.17 -70.34,73.54 -92.72,115.11 47.96,-15.99 86.33,-47.96 124.7,-86.33" /><path
         id="path22"
         style="fill:#15569c;fill-opacity:1;fill-rule:evenodd;stroke:none"
         d="m 1120.89,1596.89 c -3.2,-6.39 -9.59,-9.59 -15.98,-12.78 -12.8,0 -28.78,6.39 -41.57,6.39 12.79,3.2 25.58,12.79 38.37,12.79 6.39,6.39 15.98,0 19.18,-6.4" /><path
         id="path24"
         style="fill:#15569c;fill-opacity:1;fill-rule:evenodd;stroke:none"
         d="m 1216.81,1469 c 25.58,-47.96 19.19,-115.11 -12.79,-159.87 -57.55,-86.33 -166.26,-83.13 -255.786,-111.91 -35.171,-6.39 -73.539,-35.17 -83.132,-73.54 -3.196,-31.97 19.183,-54.35 41.566,-70.34 l 12.789,-6.39 3.195,-67.145 c -54.351,9.59 -118.3,47.955 -131.089,105.515 -3.2,31.97 0,63.95 12.789,89.52 63.949,121.5 214.218,86.33 313.338,150.28 9.6,12.79 22.38,25.58 28.78,38.37 -12.79,9.59 -28.78,19.18 -47.96,22.38 -19.19,9.59 -41.57,12.79 -63.95,19.18 v 19.19 c 41.57,-9.6 79.94,-19.19 115.11,-41.57 3.19,9.6 3.19,22.38 0,31.97 -3.2,44.77 -47.96,76.74 -89.53,86.33 -6.39,3.2 -15.99,6.4 -25.58,3.2 v 67.15 c 73.54,-3.2 143.89,-35.18 182.25,-102.32" /><path
         id="path26"
         style="fill:#15569c;fill-opacity:1;fill-rule:evenodd;stroke:none"
         d="m 1722,1248.38 c -3.2,-9.59 -3.2,-22.38 -6.4,-31.97 -51.16,79.93 -150.28,131.09 -191.84,217.42 44.76,-22.38 102.31,-51.16 134.29,-102.31 15.99,-22.39 28.77,-44.77 41.56,-67.15 0,31.97 -12.79,60.75 -19.18,89.52 -19.19,47.97 -22.38,102.32 -38.37,150.28 67.15,-67.14 95.92,-156.67 79.94,-255.79" /><path
         id="path28"
         style="fill:#15569c;fill-opacity:1;fill-rule:evenodd;stroke:none"
         d="m 1287.15,1488.18 c 3.2,-3.19 6.4,-6.39 9.6,-9.59 -12.8,0 -28.78,3.2 -35.18,15.99 9.59,0 22.38,6.39 25.58,-6.4" /><path
         id="path30"
         style="fill:#15569c;fill-opacity:1;fill-rule:evenodd;stroke:none"
         d="m 241.617,1283.55 c 9.59,0 9.59,9.59 15.985,15.99 12.789,31.98 38.367,57.55 67.144,79.94 l 102.317,73.54 c -19.184,-57.56 -76.739,-111.91 -127.895,-150.28 -25.582,-25.58 -51.156,-54.36 -73.539,-83.13 -12.789,95.92 -15.988,201.43 47.957,274.97 9.594,-76.74 -15.984,-140.69 -31.969,-211.03" /><path
         id="path32"
         style="fill:#15569c;fill-opacity:1;fill-rule:evenodd;stroke:none"
         d="m 1789.14,1152.46 -41.57,-143.88 v -3.2 c -12.78,28.78 -19.18,57.56 -38.36,83.14 l -67.15,95.91 c -15.99,31.98 -31.97,63.95 -31.97,99.12 l 73.54,-89.52 c 28.77,-38.37 38.37,-86.33 60.75,-127.9 9.59,63.95 0,137.49 9.59,201.44 3.19,31.97 12.79,57.55 9.59,89.52 28.78,-60.75 41.57,-137.48 25.58,-204.63" /><path
         id="path34"
         style="fill:#15569c;fill-opacity:1;fill-rule:evenodd;stroke:none"
         d="m 193.652,1142.87 c 3.2,-28.78 -6.394,-60.75 6.395,-86.33 3.199,12.79 3.199,25.58 9.594,38.37 19.183,67.14 60.75,127.89 115.105,185.45 C 315.156,1171.65 212.84,1101.3 200.047,995.793 161.684,1101.3 97.7344,1235.59 171.273,1347.5 c 3.2,-70.34 12.79,-137.48 22.379,-204.63" /><path
         id="path36"
         style="fill:#15569c;fill-opacity:1;fill-rule:evenodd;stroke:none"
         d="m 1245.59,1232.4 -3.2,-3.2 c -6.39,3.2 -3.2,9.59 -3.2,12.79 3.2,-3.2 6.4,-3.2 6.4,-9.59" /><path
         id="path38"
         style="fill:#15569c;fill-opacity:1;fill-rule:evenodd;stroke:none"
         d="m 1248.79,1197.22 c 0,-3.19 -3.2,-3.19 -3.2,-6.39 h -12.79 c -3.2,9.59 3.2,19.19 12.79,22.38 0,-6.39 12.79,-12.79 3.2,-15.99" /><path
         id="path40"
         style="fill:#15569c;fill-opacity:1;fill-rule:evenodd;stroke:none"
         d="m 992.996,864.699 c -15.988,-3.195 -28.777,-9.59 -44.762,-9.59 l -6.394,313.341 c 15.984,9.59 38.367,9.59 54.351,15.98 l -3.195,-236.602 v -83.129" /><path
         id="path42"
         style="fill:#15569c;fill-opacity:1;fill-rule:evenodd;stroke:none"
         d="m 1239.19,1165.25 c 0,-3.2 -6.39,-6.39 -9.59,-3.2 0,3.2 -9.59,6.4 -3.2,9.6 6.4,0 9.6,-3.2 12.79,-6.4" /><path
         id="path44"
         style="fill:#15569c;fill-opacity:1;fill-rule:evenodd;stroke:none"
         d="m 94.5391,1142.87 c 19.1799,-92.73 86.3239,-166.265 108.7069,-258.987 6.395,-15.988 9.594,-35.168 19.184,-51.156 6.394,25.578 3.199,54.351 6.394,83.128 6.399,63.95 19.188,127.895 57.555,182.255 C 305.563,983 235.223,896.672 238.418,784.766 L 142.496,909.461 C 97.7344,976.605 75.3516,1059.74 94.5391,1142.87 v 0" /><path
         id="path46"
         style="fill:#15569c;fill-opacity:1;fill-rule:evenodd;stroke:none"
         d="m 919.457,1130.08 v -47.96 c -12.789,9.59 -25.582,22.38 -25.582,38.37 0,6.39 0,12.79 6.395,19.18 6.398,-3.19 12.793,-6.39 19.187,-9.59" /><path
         id="path48"
         style="fill:#15569c;fill-opacity:1;fill-rule:evenodd;stroke:none"
         d="m 1821.11,963.816 -31.97,-57.55 -73.54,-102.317 -25.58,-44.761 c 6.39,121.496 -60.75,223.812 -41.56,348.512 41.56,-86.33 70.34,-179.052 60.75,-281.368 12.79,12.789 12.79,25.578 19.18,38.367 l 44.76,102.317 c 22.39,51.154 44.76,105.514 63.95,159.864 19.19,-54.35 0,-111.9 -15.99,-163.064" /><path
         id="path50"
         style="fill:#15569c;fill-opacity:1;fill-rule:evenodd;stroke:none"
         d="m 1095.31,976.605 c 25.58,-19.183 35.17,-51.156 28.78,-86.328 -6.4,-25.578 -22.38,-54.355 -47.96,-67.144 -35.18,-15.988 -73.54,-22.383 -111.911,-35.168 -12.789,-9.594 -35.172,-19.188 -35.172,-38.371 v -57.551 c -22.379,6.395 -38.367,28.773 -41.567,51.156 -6.394,25.578 0,54.356 22.383,70.34 47.961,35.176 111.907,28.777 150.277,76.738 6.4,9.594 3.2,25.578 -3.2,35.172 -9.59,12.789 -22.38,15.989 -35.17,25.578 v 57.553 c 28.78,-3.2 51.16,-15.986 73.54,-31.975" /><path
         id="path52"
         style="fill:#15569c;fill-opacity:1;fill-rule:evenodd;stroke:none"
         d="m 695.641,951.027 c -6.395,0 -12.789,3.196 -12.789,9.594 3.195,6.395 3.195,15.984 6.394,22.379 12.789,-3.195 3.199,-22.379 6.395,-31.973" /><path
         id="path54"
         style="fill:#15569c;fill-opacity:1;fill-rule:evenodd;stroke:none"
         d="m 922.652,935.043 c -3.195,0 0,-9.594 -6.394,-6.395 -3.195,3.196 -6.395,6.395 -3.195,9.59 3.195,3.2 9.589,3.2 9.589,-3.195" /><path
         id="path56"
         style="fill:#15569c;fill-opacity:1;fill-rule:evenodd;stroke:none"
         d="m 695.641,912.66 c -6.395,-3.199 -9.594,3.195 -9.594,6.395 0,6.394 3.199,9.593 6.398,15.988 6.395,-6.395 0,-15.988 3.196,-22.383" /><path
         id="path58"
         style="fill:#15569c;fill-opacity:1;fill-rule:evenodd;stroke:none"
         d="m 1031.36,912.66 c 3.2,-6.394 3.2,-12.789 3.2,-19.183 -6.39,-6.399 -12.79,-9.594 -22.38,-9.594 -3.2,9.594 15.99,15.988 9.59,28.777 3.2,-3.199 6.4,0 9.59,0" /><path
         id="path60"
         style="fill:#15569c;fill-opacity:1;fill-rule:evenodd;stroke:none"
         d="m 1638.86,637.684 c 31.98,25.582 41.57,60.754 63.95,89.527 l 70.34,83.133 c 15.99,22.383 31.98,38.371 47.96,60.75 C 1808.32,752.793 1715.6,660.066 1619.68,586.527 L 1590.9,557.75 c 28.78,70.344 31.98,163.066 15.99,239.805 -3.2,35.172 9.59,70.34 19.18,102.316 15.99,-79.937 38.37,-179.055 12.79,-262.187" /><path
         id="path62"
         style="fill:#15569c;fill-opacity:1;fill-rule:evenodd;stroke:none"
         d="m 212.84,746.395 c 22.383,-31.973 44.762,-63.946 70.34,-95.918 -3.196,79.933 -15.989,172.656 12.789,246.195 15.988,-22.383 15.988,-51.156 22.383,-76.738 l 3.199,-38.364 V 628.094 c 0,-19.184 9.59,-35.172 12.785,-54.356 l -95.918,73.539 C 161.684,717.621 107.324,797.555 94.5391,896.672 L 212.84,746.395" /><path
         id="path64"
         style="fill:#15569c;fill-opacity:1;fill-rule:evenodd;stroke:none"
         d="m 922.652,858.305 c 0,-3.196 -3.195,-6.395 -6.394,-3.196 3.199,6.395 3.199,15.985 9.594,22.379 3.195,-6.394 0,-12.789 -3.2,-19.183" /><path
         id="path66"
         style="fill:#15569c;fill-opacity:1;fill-rule:evenodd;stroke:none"
         d="m 909.863,848.715 -3.195,-3.199 c -3.199,3.199 0,12.789 -3.199,15.988 6.394,0 3.199,-9.594 6.394,-12.789" /><path
         id="path68"
         style="fill:#15569c;fill-opacity:1;fill-rule:evenodd;stroke:none"
         d="m 414.27,829.527 c 3.199,-6.394 0,-12.789 -3.196,-19.183 -3.195,6.394 -9.59,9.59 -6.39,19.183 0,6.395 9.586,3.2 9.586,0" /><path
         id="path70"
         style="fill:#15569c;fill-opacity:1;fill-rule:evenodd;stroke:none"
         d="m 986.602,436.254 c -6.395,-6.399 -3.2,-9.594 -9.594,-12.793 -9.594,-6.395 -15.988,6.394 -19.184,12.793 l -3.195,211.023 -3.199,105.516 c 9.59,9.59 25.578,9.59 38.367,15.984 V 666.461 l -3.195,-230.207" /><path
         id="path72"
         style="fill:#15569c;fill-opacity:1;fill-rule:evenodd;stroke:none"
         d="m 1510.97,481.016 c -3.2,-9.59 -9.59,-15.985 -9.59,-22.383 99.11,57.555 195.03,124.699 284.56,201.433 C 1737.98,497 1558.93,465.031 1434.23,401.082 c 73.54,95.918 57.56,230.211 134.29,326.129 -3.2,-89.527 -15.98,-175.852 -57.55,-246.195" /><path
         id="path74"
         style="fill:#15569c;fill-opacity:1;fill-rule:evenodd;stroke:none"
         d="m 398.285,650.477 c 28.778,-79.938 35.172,-169.461 83.133,-239.805 -92.723,38.371 -195.039,63.949 -271.777,143.883 -28.778,31.972 -51.157,63.949 -63.946,102.316 3.196,3.195 6.395,0 6.395,-3.199 70.34,-63.945 150.273,-92.723 220.617,-153.473 19.184,-12.789 31.977,-31.972 51.156,-38.367 -9.593,35.168 -31.972,67.145 -44.761,102.313 -15.989,47.964 -28.778,102.316 -22.383,159.871 19.187,-19.184 28.777,-47.961 41.566,-73.539" /><path
         id="path76"
         style="fill:#15569c;fill-opacity:1;fill-rule:evenodd;stroke:none"
         d="m 916.258,669.66 c -3.195,-3.199 -9.59,-3.199 -12.789,0 l -3.199,6.395 h -3.196 c -6.394,9.593 -9.594,19.183 -9.594,28.777 6.395,-12.789 22.383,-22.383 28.778,-35.172" /><path
         id="path78"
         style="fill:#15569c;fill-opacity:1;fill-rule:evenodd;stroke:none"
         d="M 913.063,1648.05 C 765.984,1635.27 641.285,1571.32 532.574,1462.61 l 73.539,-70.34 c 83.133,83.12 182.25,124.69 287.762,156.67 l 19.188,6.39 v -63.95 c -41.567,-22.38 -70.344,-73.54 -111.911,-89.52 -22.379,-15.99 -47.961,-31.98 -73.539,-44.77 -9.59,6.4 -19.183,-3.2 -25.578,-9.59 l -12.789,-28.77 c -3.199,6.39 0,12.79 3.199,19.18 -6.398,0 -15.988,-3.2 -22.382,-3.2 15.984,9.59 41.566,15.99 38.367,38.37 3.199,35.17 25.578,63.95 38.367,95.92 0,3.2 3.199,6.39 3.199,6.39 v 0 c -47.961,-22.37 -89.527,-57.55 -131.09,-95.91 9.59,-12.8 22.379,-22.39 31.969,-35.18 l -6.395,-6.39 -31.972,31.97 c -89.524,-92.72 -131.09,-211.02 -134.285,-338.92 h 99.113 c 0,105.52 38.371,195.04 105.516,271.78 l -3.2,3.2 3.2,6.39 6.394,-3.2 c 63.945,67.15 140.684,102.32 227.012,118.3 v -19.18 C 833.129,1395.46 762.785,1360.29 698.84,1296.34 l 86.328,-86.32 c 15.984,19.18 35.168,28.77 54.355,41.56 6.395,-6.39 0,-15.99 -6.394,-19.18 -51.16,-31.98 -83.133,-83.13 -99.121,-137.49 6.394,-3.2 9.594,15.98 22.383,12.79 6.394,0 0,9.59 9.593,6.39 3.196,-6.39 3.196,-22.38 3.196,-31.97 6.394,-41.57 38.367,-86.327 79.933,-105.515 l 22.383,-6.394 c -3.195,-3.195 -15.988,-6.395 -15.988,-15.988 0,-3.196 -3.195,-6.395 -3.195,-9.59 6.394,-6.395 -6.395,-15.985 0,-22.379 9.593,6.394 25.578,15.984 25.578,28.773 9.589,12.789 22.379,15.989 35.172,19.184 3.195,-3.195 6.394,-3.195 9.589,-9.59 0,-3.199 -3.195,-3.199 -6.394,-6.398 l -25.578,-22.379 -6.395,3.199 -89.523,-89.527 c 22.379,-25.582 51.156,-38.371 79.933,-51.161 -3.199,-3.195 -3.199,-12.785 -6.394,-9.589 -28.778,12.789 -57.555,28.773 -79.938,54.355 -25.578,-25.582 -47.961,-47.961 -73.539,-73.539 9.59,-6.394 9.59,-28.777 25.578,-31.977 9.594,-6.394 9.594,-12.789 9.594,-22.378 54.356,-38.372 115.106,-63.95 179.051,-70.344 v -12.789 c -67.141,3.199 -131.09,28.777 -188.645,67.144 -28.773,9.594 -44.761,-19.183 -73.539,-15.984 -9.593,3.195 -22.383,6.394 -35.168,3.195 L 618.906,669.66 c 86.328,-89.527 191.84,-134.289 310.141,-143.883 l -3.195,-15.984 c -115.106,9.59 -220.618,54.352 -306.946,137.484 l -12.793,9.594 -70.34,-70.344 c 111.907,-118.3 249.395,-179.05 406.067,-188.64 172.66,0 322.93,57.551 447.63,175.851 0,3.2 3.2,6.395 3.2,6.395 l -73.54,73.539 c -38.37,-38.367 -86.33,-70.34 -134.29,-95.922 -22.38,-12.785 -38.37,-31.973 -63.95,-38.367 l -9.59,9.594 c -31.98,-6.395 -63.95,-15.989 -95.92,-19.184 l -3.2,15.984 c 22.38,3.2 47.96,6.395 70.34,12.793 0,12.789 -19.18,19.18 -28.77,25.575 -9.6,9.593 -19.19,22.382 -12.8,38.371 12.8,-15.989 22.39,-38.371 41.57,-41.567 22.39,19.184 9.59,54.356 9.59,79.934 -6.39,6.394 -15.98,0 -22.38,0 6.4,-6.395 6.4,-19.184 9.59,-28.774 3.2,-6.394 0,-12.793 3.2,-19.187 -9.59,3.199 -15.98,15.988 -22.38,25.582 -6.39,6.394 -9.59,15.984 -19.19,15.984 l -22.38,-6.394 v 15.984 c 3.2,0 6.4,0 12.79,3.199 -25.57,0 -9.59,25.578 -12.79,38.371 15.99,-6.394 31.98,-19.187 41.57,-31.976 6.4,3.199 19.18,3.199 15.99,9.594 -15.99,19.183 -35.18,35.172 -57.56,44.765 v 67.141 c 51.16,15.988 105.52,38.367 127.9,92.723 9.59,41.566 6.39,89.527 -25.58,118.304 -28.78,25.581 -63.95,41.561 -99.12,51.161 v 121.5 c 6.4,3.19 12.79,6.39 19.18,9.59 9.6,-12.79 -12.78,-31.97 9.6,-38.37 12.79,0 12.79,12.79 15.99,19.19 0,6.39 6.39,15.98 12.78,19.18 12.79,0 15.99,19.18 31.98,12.79 l 118.3,118.3 c -6.39,6.4 3.2,15.99 3.2,22.38 l 12.79,-9.59 c 3.2,12.79 35.17,22.38 15.98,38.37 -3.19,3.19 -6.39,6.39 -9.59,9.59 12.79,38.37 9.59,83.13 -9.59,115.1 0,3.2 3.2,6.4 6.4,9.6 12.78,-9.6 25.57,-25.58 44.76,-22.38 9.59,-12.79 25.58,-25.58 22.38,-44.77 3.2,-6.39 9.59,-12.79 19.18,-12.79 l 63.95,63.95 c -99.12,108.71 -223.81,159.87 -361.3,179.05 v 28.78 c 220.62,-19.19 447.63,-198.24 524.37,-412.46 99.11,-258.99 22.38,-553.143 -185.45,-738.593 C 1264.77,433.055 1140.07,378.699 989.797,375.504 823.535,369.109 679.652,420.266 558.156,522.582 353.523,701.633 273.586,986.199 369.508,1241.99 c 54.355,179.05 227.015,354.9 406.066,406.06 44.762,15.99 89.528,25.58 137.489,31.98 z M 788.363,1469 c -6.394,-3.2 -9.59,-6.39 -9.59,-12.79 3.196,-3.19 3.196,-12.79 12.79,-9.59 6.394,3.2 12.789,6.4 9.589,12.79 -3.195,6.39 -9.589,12.79 -12.789,9.59 z m 620.287,-6.39 -63.94,-63.95 15.98,-19.18 c 15.99,-12.8 15.99,-41.57 41.57,-44.77 6.39,-28.77 35.17,-47.96 51.15,-73.54 9.6,-19.18 -15.98,-12.79 -22.38,-25.58 28.78,-60.75 44.77,-131.09 41.57,-204.63 h 102.32 c -3.2,163.07 -57.56,310.15 -166.27,431.65 z m -882.47,-6.4 C 417.469,1334.71 363.113,1190.83 356.719,1030.96 h 102.316 c 6.395,134.29 51.156,252.59 140.684,351.71 -25.578,25.58 -47.957,51.16 -73.539,73.54 z m 748.18,-131.09 -22.38,-19.18 c 28.78,-28.78 41.57,-67.15 73.54,-89.53 0,-15.99 6.4,-25.58 9.59,-38.37 -6.39,-6.39 3.2,-12.79 3.2,-19.18 3.2,6.39 0,19.18 6.4,22.38 22.38,-12.79 0,-35.17 3.19,-54.36 9.59,-28.77 9.59,-63.94 15.99,-95.92 h 92.72 c 0,67.15 -12.79,131.09 -38.36,188.65 -3.2,0 -6.4,-3.2 -9.6,-3.2 -12.79,12.79 -19.18,31.97 -28.77,47.96 -6.4,3.2 -15.99,3.2 -22.39,3.2 -3.19,0 -9.59,9.59 -12.78,6.39 -9.6,9.59 -25.58,3.2 -35.17,9.59 -6.4,19.19 -25.59,25.58 -35.18,41.57 z m -495.587,-118.3 -86.328,83.13 c -67.144,-73.54 -95.922,-159.87 -102.316,-258.99 h 70.34 c 6.394,9.59 15.988,12.79 22.383,19.18 3.195,19.19 25.578,15.99 35.171,35.18 12.79,41.56 31.973,83.13 60.75,118.3 z m 457.227,83.13 -79.94,-83.13 c 6.4,-9.6 12.79,-25.58 25.58,-22.39 0,-3.19 -3.19,-6.39 -6.39,-6.39 9.59,-15.99 28.77,-19.18 44.76,-19.18 9.59,-3.2 6.39,-12.79 9.59,-19.19 15.99,-9.59 0,-25.58 6.4,-38.37 9.59,3.2 15.98,19.19 28.77,15.99 12.79,-6.4 3.2,-22.38 9.59,-31.97 22.39,-3.2 28.78,19.18 35.18,31.97 9.59,-19.18 -6.4,-38.37 -19.19,-51.16 -6.4,-3.19 -12.79,-3.19 -19.19,-6.39 0,-12.79 -9.59,-25.58 -19.18,-28.78 h 92.73 c 0,12.79 0,31.98 -3.2,44.77 -3.2,-3.2 -9.59,-12.79 -15.99,-9.6 -3.2,19.19 -3.2,47.96 3.2,70.35 -3.2,3.19 -3.2,15.98 -9.59,12.79 -3.2,25.57 -35.18,38.36 -35.18,60.75 h 12.8 l -9.6,15.98 c 0,-3.2 0,-6.39 -3.2,-9.59 -19.18,6.39 -15.98,25.58 -22.38,41.56 -12.78,6.4 -9.59,25.58 -25.57,31.98 z m -92.73,-95.92 h -3.2 c 6.4,0 6.4,-3.2 9.6,-3.2 z m -19.18,-19.19 -19.18,-15.98 c 9.59,-6.4 19.18,0 31.97,-3.2 9.59,-3.2 -3.2,-15.99 6.39,-22.38 0,3.2 3.2,0 3.2,0 3.2,6.39 0,12.79 -3.2,19.18 6.4,6.4 15.99,6.4 22.38,9.59 3.2,6.4 -3.19,9.6 -3.19,12.79 -9.6,-3.19 -22.39,0 -28.78,-6.39 -3.2,0 -9.59,0 -9.59,6.39 z m -31.98,-15.98 c -3.19,3.19 6.4,6.39 6.4,9.59 z M 356.719,1018.17 c 6.394,-163.061 57.551,-306.943 169.461,-425.248 25.582,25.582 51.156,47.961 73.539,73.539 -12.789,12.793 -22.383,22.383 -35.168,35.172 -6.395,3.199 -12.789,0 -19.188,3.199 0,12.789 -3.195,25.578 -6.394,38.367 -12.789,12.789 -31.973,12.789 -47.961,15.989 -9.59,6.394 -19.184,19.183 -15.985,28.777 6.395,25.574 -22.382,25.574 -31.976,41.562 -12.789,0 -15.984,9.594 -22.379,15.989 -6.398,-3.2 -12.789,-9.594 -19.184,-6.395 -3.199,6.395 -3.199,19.184 0,22.383 9.59,22.379 28.774,12.785 44.762,12.785 9.594,6.395 19.184,9.594 28.777,12.789 -9.593,41.57 -15.988,86.332 -15.988,131.092 z m 217.422,0 h -95.918 c 0,-47.959 6.394,-89.522 19.179,-131.092 12.789,-3.195 22.383,-9.59 31.977,-15.984 0,9.59 -6.395,15.984 -3.199,22.383 9.593,9.589 6.394,22.378 6.394,35.171 3.199,22.379 28.778,31.973 44.762,44.762 z m 15.988,0 6.394,-44.76 c 9.59,-6.394 19.184,-12.789 31.973,-15.988 12.789,6.394 19.184,22.383 22.379,38.371 9.594,38.367 -38.367,12.787 -60.746,22.377 z m 105.512,-3.19 c -12.789,-3.2 -9.594,-22.386 -25.578,-25.585 0,-12.79 -6.395,-22.379 -15.989,-31.973 -3.199,-6.395 -6.394,-12.789 0,-15.984 12.789,-6.395 9.594,-22.383 9.594,-35.172 19.184,-12.789 12.789,-38.371 6.395,-54.356 19.183,-12.789 22.382,-35.172 28.777,-54.355 -6.395,-3.2 -9.594,-9.59 -6.395,-19.184 0,-6.394 6.395,-6.394 12.789,-6.394 22.379,25.578 51.157,47.957 73.539,73.539 -41.566,51.156 -63.949,105.511 -67.144,169.464 -6.395,3.19 -9.594,0 -15.988,0 z m 546.749,3.19 c -3.2,-15.98 6.4,-31.971 6.4,-44.76 0,-3.199 3.19,-9.594 6.39,-9.594 6.39,0 3.2,6.395 9.59,9.594 12.79,0 22.38,-9.594 31.98,-15.988 l -6.4,-9.594 c -12.79,-3.195 -19.19,-15.984 -31.97,-15.984 -9.59,-19.184 -38.37,-12.789 -44.77,-35.172 -3.2,-3.195 -6.39,-12.789 -12.79,-6.395 6.4,-28.773 -31.97,-25.578 -41.56,-44.761 9.59,15.988 31.97,0 35.17,19.183 6.39,6.395 9.59,3.196 15.98,0 -3.19,-15.984 -6.39,-31.972 -6.39,-47.961 -3.2,-3.199 -6.39,-15.988 -12.79,-15.988 0,0 0,-3.195 3.2,-3.195 3.2,6.394 9.59,12.789 12.79,15.984 28.78,-3.195 6.39,-41.562 25.58,-54.351 70.34,73.539 105.51,156.667 111.91,258.982 z m 118.3,0 c -6.39,-105.51 -41.56,-198.236 -111.9,-271.775 l 12.78,-15.985 v 3.195 c 3.2,3.2 9.59,3.2 12.79,0 -3.2,-25.574 28.78,-38.367 41.57,-57.55 89.53,95.922 134.29,207.828 140.68,342.115 z m 111.91,0 c -3.2,-137.486 -51.15,-255.787 -143.88,-354.904 l 73.54,-73.539 19.19,22.382 c 95.91,115.102 150.27,249.395 153.47,406.061 z m -748.186,-3.19 3.199,-25.585 c 3.2,6.398 3.2,12.795 3.2,22.385 z m 9.594,-57.558 c 9.594,-38.367 28.777,-70.344 54.355,-99.117 l 44.766,44.761 c 0,3.2 -3.199,6.395 -6.399,9.594 -22.378,6.395 -19.183,31.973 -41.562,41.563 -3.199,-6.395 -12.789,0 -19.184,-3.196 -6.398,12.789 -22.382,0 -31.976,6.395 z M 1178.45,797.555 c -9.6,-6.395 -25.59,-6.395 -38.38,-3.2 l -3.19,-6.39 c 15.98,-6.395 31.97,0 47.96,3.195 z m 60.74,-60.75 -25.58,-22.383 c 0,-12.789 12.79,-19.184 22.39,-25.578 -3.2,-12.789 -3.2,-25.578 -15.99,-35.172 3.2,-22.379 -15.99,-38.367 -9.6,-63.945 35.18,19.183 67.15,44.761 95.93,76.734 l -22.39,22.383 c 0,-6.395 -3.19,-12.789 -6.39,-15.989 -12.79,3.2 -15.99,15.989 -19.18,28.778 12.78,15.988 -12.79,22.383 -19.19,35.172 z M 615.707,679.254 h -3.199 l -3.195,3.195 c 0,0 3.195,-3.195 6.394,-3.195" /><path
         id="path80"
         style="fill:#15569c;fill-opacity:1;fill-rule:evenodd;stroke:none"
         d="m 1351.1,343.527 c 9.59,0 22.38,6.395 31.97,9.594 102.32,28.777 214.23,38.371 300.56,105.512 l 12.78,12.793 c -3.19,-15.988 -12.78,-28.778 -19.18,-44.766 -41.56,-51.156 -99.12,-73.539 -153.47,-89.527 -70.35,-25.578 -156.67,-9.594 -230.21,-25.578 l 31.97,51.156 73.54,150.277 67.15,70.344 C 1447.02,497 1399.06,420.266 1351.1,343.527" /><path
         id="path82"
         style="fill:#15569c;fill-opacity:1;fill-rule:evenodd;stroke:none"
         d="m 503.797,532.172 c 38.371,-47.961 63.949,-99.117 83.133,-156.668 15.988,-19.188 25.578,-41.566 35.172,-63.949 -6.395,0 -15.989,3.199 -22.383,6.398 l -118.301,6.395 c -54.355,3.191 -99.117,25.574 -147.082,41.562 -38.367,22.383 -76.734,54.356 -99.113,92.723 31.968,-15.985 67.14,-35.172 105.507,-44.762 l 134.293,-35.172 c 19.184,0 31.973,-12.789 47.961,-19.183 22.379,-6.395 41.567,-15.989 63.946,-19.184 -51.157,70.34 -111.907,140.684 -121.5,227.012 12.793,-6.395 28.777,-19.184 38.367,-35.172" /><path
         id="path84"
         style="fill:#15569c;fill-opacity:1;fill-rule:evenodd;stroke:none"
         d="M 919.457,292.371 C 903.469,279.582 884.285,269.988 868.301,257.199 829.93,260.395 791.563,250.805 756.391,244.41 654.074,218.832 519.785,193.254 427.063,257.199 l -41.567,25.578 c 28.774,-6.394 57.551,-19.183 92.727,-19.183 35.168,-3.199 76.734,-3.199 108.707,9.594 l 121.5,38.367 c 70.343,12.793 150.277,12.793 211.027,-19.184" /><path
         id="path86"
         style="fill:#15569c;fill-opacity:1;fill-rule:evenodd;stroke:none"
         d="m 1395.86,269.988 c 54.36,-3.195 105.52,-3.195 150.28,19.184 -63.95,-57.551 -147.08,-76.734 -236.6,-73.539 -102.32,19.187 -198.24,57.555 -306.95,41.566 -51.16,-15.984 -102.32,-25.578 -143.883,-63.945 -22.383,-15.988 -44.766,-41.566 -67.144,-63.949 -6.395,6.394 -15.989,12.789 -28.778,15.988 118.301,115.102 255.785,191.84 425.255,163.066 70.34,-9.593 134.28,-38.371 207.82,-38.371" /><path
         id="path88"
         style="fill:#15569c;fill-opacity:1;fill-rule:evenodd;stroke:none"
         d="m 1165.65,138.898 c -9.59,-6.394 -19.18,-6.394 -28.77,-9.593 -38.37,38.371 -73.54,73.539 -115.11,102.316 9.59,6.395 19.18,3.199 28.78,9.594 38.37,-31.977 83.13,-63.949 115.1,-102.317" /></g></g></svg>